<?xml version="1.0" encoding="UTF-8"?>
<svg id="Calque_1" data-name="Calque 1" xmlns="http://www.w3.org/2000/svg" viewBox="0 0 35.05 35.05">
  <defs>
    <style>
      .cls-1 {
        fill: #1d1d1b;
      }

      .cls-2 {
        fill: #32bef0;
      }

      .cls-3 {
        fill: #0088c2;
      }
    </style>
  </defs>
  <rect class="cls-3" width="35.05" height="35.05"/>
  <g>
    <g>
      <path class="cls-2" d="M16.55,13.3c-3.47-.29-6.94-.59-10.4-.88v-2.24c2.22-.81,4.43-1.51,6.65-2.08-2.22-.39-4.43-.78-6.65-1.17v-2.02c3.47.73,6.94,1.46,10.4,2.18v1.83c-2.18.53-4.36,1.17-6.55,1.94,2.18.26,4.36.52,6.55.78v1.67Z"/>
      <path class="cls-2" d="M16.55,27.97c-3.47.73-6.94,1.46-10.4,2.18v-2.22c3.47-.6,6.94-1.2,10.4-1.8v1.83Z"/>
      <path class="cls-2" d="M14.72,26.64c-.43-.41-.86-.83-1.29-1.26.87-.85,1.3-1.63,1.3-2.39,0-.33-.09-.62-.26-.87-.22-.33-.54-.48-.94-.45-.49.04-.79.36-.92.96-.12.56-.23,1.12-.35,1.69-.32,1.56-1.28,2.49-2.86,2.76-1.18.2-2.08,0-2.72-.64-.56-.56-.83-1.37-.83-2.41,0-1.6.67-2.97,2-4.02.48.52.95,1.03,1.43,1.53-.88.64-1.32,1.46-1.32,2.41,0,.28.09.54.28.76.2.26.46.36.77.32.51-.07.84-.5.99-1.28.05-.27.11-.54.16-.81.2-.97.48-1.7.86-2.18.49-.61,1.19-.92,2.1-.96,1.39-.06,2.4.31,3.02,1.04.46.55.69,1.25.69,2.14,0,1.28-.71,2.46-2.12,3.66Z"/>
      <path class="cls-2" d="M16.55,19.64c-3.47.15-6.94.29-10.4.44v-4.34c0-1.01.22-1.75.66-2.21.44-.46,1.11-.65,2.01-.58.61.05,1.12.24,1.52.55.4.32.69.76.86,1.34.06-.59.28-1.05.66-1.37.42-.35.99-.49,1.72-.43.98.08,1.72.41,2.22.95.5.54.75,1.3.75,2.3,0,1.11,0,2.23,0,3.34ZM8.08,17.95c.72,0,1.44-.01,2.16-.02v-1.72c0-.36-.09-.64-.27-.82-.18-.19-.45-.29-.81-.3-.42-.02-.71.06-.88.25-.14.16-.2.44-.2.82v1.79ZM12.17,17.89c.82,0,1.64-.01,2.46-.02,0-.52,0-1.03,0-1.55,0-.43-.1-.75-.31-.98-.2-.22-.51-.35-.91-.37-.44-.02-.75.03-.95.17-.2.14-.29.39-.29.76,0,.66,0,1.32,0,1.99Z"/>
    </g>
    <g>
      <path class="cls-2" d="M17.52,21.75c3.47.29,6.94.59,10.4.88v2.24c-2.22.81-4.43,1.51-6.65,2.08,2.22.39,4.43.78,6.65,1.17,0,.67,0,1.35,0,2.02-3.47-.73-6.94-1.46-10.4-2.18v-1.83c2.18-.53,4.36-1.17,6.55-1.94-2.18-.26-4.36-.52-6.55-.78v-1.67Z"/>
      <path class="cls-2" d="M17.52,7.08c3.47-.73,6.94-1.46,10.4-2.18,0,.74,0,1.48,0,2.22-3.47.6-6.94,1.2-10.4,1.8v-1.83Z"/>
      <path class="cls-2" d="M19.35,8.41c.43.41.86.83,1.29,1.26-.87.85-1.3,1.63-1.3,2.39,0,.33.09.62.26.87.22.33.54.48.94.45.49-.04.79-.36.92-.96.12-.56.23-1.12.35-1.69.32-1.56,1.28-2.49,2.86-2.76,1.18-.2,2.08,0,2.72.64.56.56.83,1.37.83,2.41,0,1.6-.67,2.97-2,4.02-.48-.52-.95-1.03-1.43-1.53.88-.65,1.32-1.46,1.32-2.41,0-.28-.09-.54-.28-.76-.2-.26-.46-.36-.77-.32-.51.07-.84.5-.99,1.28-.05.27-.11.54-.16.81-.2.97-.48,1.7-.86,2.18-.49.61-1.19.92-2.1.96-1.39.06-2.4-.31-3.02-1.04-.46-.55-.69-1.25-.69-2.14,0-1.28.71-2.46,2.12-3.66Z"/>
      <path class="cls-2" d="M17.52,15.41c3.47-.15,6.94-.29,10.4-.44v4.34c0,1.01-.22,1.75-.66,2.21-.44.46-1.11.65-2.01.58-.61-.05-1.12-.24-1.52-.55-.4-.32-.69-.76-.86-1.34-.06.59-.28,1.05-.66,1.37-.42.35-.99.49-1.72.43-.98-.08-1.72-.41-2.22-.95-.5-.54-.75-1.3-.75-2.3v-3.34ZM26,17.1c-.72,0-1.44.01-2.16.02v1.72c0,.36.09.64.27.82.18.19.45.29.81.3.42.02.71-.06.88-.25.14-.16.2-.44.2-.82v-1.79ZM21.91,17.15c-.82,0-1.64.01-2.46.02v1.55c0,.43.1.75.31.98.2.22.51.35.91.37.44.02.75-.03.95-.17.2-.14.29-.39.29-.76,0-.66,0-1.32,0-1.99Z"/>
    </g>
    <g>
      <path class="cls-1" d="M23.59,22.29v-10.54s2.66,0,2.66,0l3.86,6.73v-6.73s2.4,0,2.4,0v10.54s-2.63,0-2.63,0l-3.89-6.63v6.63s-2.4,0-2.4,0Z"/>
      <path class="cls-1" d="M2.53,22.29v-10.54s2.63,0,2.63,0v10.54s-2.63,0-2.63,0Z"/>
      <path class="cls-1" d="M4.9,20.44l2.01-1.3c.98.88,1.99,1.32,3.05,1.32.45,0,.87-.09,1.24-.27.48-.23.73-.54.73-.95,0-.49-.4-.8-1.18-.93l-2.19-.36c-2.01-.33-3.02-1.29-3.02-2.9,0-1.19.44-2.11,1.32-2.75.77-.56,1.77-.84,2.99-.84,1.88,0,3.43.68,4.65,2.03l-1.99,1.44c-.73-.89-1.68-1.34-2.83-1.34-.35,0-.67.09-.98.28-.35.21-.52.47-.52.78,0,.51.49.85,1.47,1.01l1.01.16c1.21.2,2.12.49,2.71.87.75.49,1.13,1.2,1.13,2.13,0,1.41-.56,2.43-1.67,3.06-.82.46-1.87.7-3.15.7-1.86,0-3.44-.72-4.75-2.15Z"/>
      <path class="cls-1" d="M14.49,22.29v-10.54s5.15,0,5.15,0c1.19,0,2.09.22,2.68.67.59.45.89,1.13.89,2.04,0,.62-.18,1.14-.55,1.54-.37.4-.92.7-1.66.87.77.06,1.38.28,1.84.67.5.42.75,1.01.75,1.75,0,1-.36,1.75-1.07,2.25-.72.5-1.79.75-3.23.75h-4.8ZM17.01,13.7v2.19h2.19c.46,0,.81-.09,1.04-.27s.34-.46.34-.82c0-.42-.12-.72-.35-.89-.21-.14-.55-.21-1.02-.21h-2.19ZM17.04,17.85v2.49h2.15c.59,0,1.04-.1,1.33-.31.3-.21.44-.51.44-.92,0-.44-.1-.76-.29-.96-.19-.2-.53-.3-1.01-.3h-2.62Z"/>
    </g>
  </g>
</svg>