<?xml version="1.0" encoding="UTF-8"?>
<svg id="Calque_1" data-name="Calque 1" xmlns="http://www.w3.org/2000/svg" viewBox="0 0 35.22 21.05">
  <defs>
    <style>
      .cls-1 {
        fill: #1d1d1b;
      }

      .cls-2 {
        fill: #0088c2;
      }
    </style>
  </defs>
  <path class="cls-2" d="M3.67,20.07v-8.58h2.15v8.58h-2.15Z"/>
  <path class="cls-2" d="M6.67,18.56l1.64-1.06c.8.72,1.62,1.07,2.48,1.07.37,0,.71-.07,1.01-.22.39-.18.59-.44.59-.77,0-.4-.32-.65-.96-.76l-1.78-.29c-1.64-.26-2.46-1.05-2.46-2.36,0-.97.36-1.72,1.07-2.24.63-.46,1.44-.69,2.44-.69,1.53,0,2.8.55,3.78,1.65l-1.62,1.18c-.6-.73-1.36-1.09-2.31-1.09-.28,0-.55.08-.8.23-.28.17-.42.38-.42.64,0,.42.4.69,1.19.82l.82.13c.99.16,1.72.4,2.21.71.61.4.92.98.92,1.74,0,1.15-.45,1.98-1.36,2.49-.67.38-1.52.57-2.57.57-1.51,0-2.8-.58-3.87-1.75Z"/>
  <path class="cls-2" d="M15.73,20.07v-8.58h4.19c.97,0,1.7.18,2.18.55.48.37.72.92.72,1.66,0,.51-.15.92-.45,1.25-.3.33-.75.57-1.35.71.63.05,1.13.23,1.49.54.41.35.61.82.61,1.42,0,.81-.29,1.42-.87,1.83-.58.41-1.46.61-2.63.61h-3.91ZM17.78,13.08v1.78h1.78c.38,0,.66-.07.84-.22s.28-.37.28-.67c0-.35-.1-.59-.29-.72-.17-.11-.45-.17-.83-.17h-1.78ZM17.81,16.45v2.03h1.75c.48,0,.84-.08,1.08-.25.24-.17.36-.42.36-.75,0-.36-.08-.62-.23-.78-.16-.16-.43-.24-.83-.24h-2.13Z"/>
  <path class="cls-2" d="M24.44,20.07v-8.58h2.17l3.15,5.48v-5.48h1.95v8.58h-2.15l-3.17-5.4v5.4h-1.95Z"/>
  <rect class="cls-1" x="33.04" y=".78" width="1.34" height="19.29" transform="translate(67.41 20.84) rotate(180)"/>
  <rect class="cls-1" x="30.37" y=".78" width="1.34" height="9.54" transform="translate(62.07 11.09) rotate(180)"/>
  <rect class="cls-1" x="27.7" y=".78" width="1.34" height="9.54" transform="translate(56.73 11.09) rotate(180)"/>
  <rect class="cls-1" x="25.03" y=".78" width="1.34" height="9.54" transform="translate(51.39 11.09) rotate(180)"/>
  <rect class="cls-1" x="22.36" y=".78" width="1.34" height="9.54" transform="translate(46.05 11.09) rotate(180)"/>
  <rect class="cls-1" x="19.69" y=".78" width="1.34" height="9.54" transform="translate(40.71 11.09) rotate(180)"/>
  <rect class="cls-1" x="17.02" y=".78" width="1.34" height="9.54" transform="translate(35.37 11.09) rotate(180)"/>
  <rect class="cls-1" x="14.35" y=".78" width="1.34" height="9.54" transform="translate(30.03 11.09) rotate(180)"/>
  <rect class="cls-1" x="11.68" y=".78" width="1.34" height="9.54" transform="translate(24.69 11.09) rotate(180)"/>
  <rect class="cls-1" x="9.01" y=".78" width="1.34" height="9.54" transform="translate(19.35 11.09) rotate(180)"/>
  <rect class="cls-1" x="6.34" y=".78" width="1.34" height="9.54" transform="translate(14.01 11.09) rotate(180)"/>
  <rect class="cls-1" x="3.67" y=".78" width="1.34" height="9.54" transform="translate(8.67 11.09) rotate(180)"/>
  <rect class="cls-1" x="1" y=".78" width="1.34" height="19.29" transform="translate(3.33 20.84) rotate(180)"/>
</svg>